<svg xmlns="http://www.w3.org/2000/svg" xmlns:xlink="http://www.w3.org/1999/xlink" width="500" zoomAndPan="magnify" viewBox="0 0 375 374.999991" height="500" preserveAspectRatio="xMidYMid meet" version="1.0"><defs><g/><clipPath id="3fec47a89f"><path d="M 75.949219 101 L 277 101 L 277 240.703125 L 75.949219 240.703125 Z M 75.949219 101 " clip-rule="nonzero"/></clipPath><clipPath id="b16e8eeadd"><path d="M 98 17.953125 L 298.699219 17.953125 L 298.699219 158 L 98 158 Z M 98 17.953125 " clip-rule="nonzero"/></clipPath><clipPath id="36d82c0804"><path d="M 246 259.242188 L 362.832031 259.242188 L 362.832031 346.992188 L 246 346.992188 Z M 246 259.242188 " clip-rule="nonzero"/></clipPath></defs><g clip-path="url(#3fec47a89f)"><path fill="#ffffff" d="M 187.96875 164.339844 C 191.476562 164.339844 194.316406 167.183594 194.316406 170.6875 C 194.316406 174.191406 191.476562 177.035156 187.96875 177.035156 C 184.464844 177.035156 181.625 174.191406 181.625 170.6875 C 181.625 167.183594 184.464844 164.339844 187.96875 164.339844 Z M 167.3125 119.082031 C 163.804688 119.082031 160.964844 116.238281 160.964844 112.730469 C 160.964844 109.230469 163.804688 106.386719 167.3125 106.386719 C 170.816406 106.386719 173.65625 109.230469 173.65625 112.730469 C 173.65625 116.238281 170.816406 119.082031 167.3125 119.082031 Z M 263.460938 171.546875 L 263.464844 171.546875 C 263.488281 171.507812 263.507812 171.46875 263.527344 171.429688 C 263.792969 170.945312 264.054688 170.460938 264.3125 169.976562 C 264.386719 169.835938 264.460938 169.699219 264.53125 169.558594 C 264.757812 169.121094 264.984375 168.679688 265.203125 168.242188 L 265.203125 168.238281 C 265.890625 166.863281 266.546875 165.46875 267.164062 164.050781 L 211.765625 108.960938 L 177.722656 108.960938 C 176.179688 104.703125 172.101562 101.664062 167.3125 101.664062 C 161.195312 101.664062 156.238281 106.617188 156.238281 112.730469 C 156.238281 118.847656 161.195312 123.804688 167.3125 123.804688 C 171.960938 123.804688 175.9375 120.9375 177.578125 116.878906 L 208.484375 116.878906 L 247.203125 155.378906 C 237.195312 178.433594 214.230469 194.5625 187.496094 194.5625 C 156.59375 194.5625 130.734375 173.019531 124.09375 144.136719 L 154.585938 174.460938 L 177.558594 174.460938 C 179.101562 178.71875 183.179688 181.757812 187.96875 181.757812 C 194.082031 181.757812 199.042969 176.804688 199.042969 170.6875 C 199.042969 164.570312 194.082031 159.617188 187.96875 159.617188 C 183.320312 159.617188 179.339844 162.484375 177.699219 166.542969 L 157.867188 166.542969 L 99.140625 108.144531 L 90.203125 110.433594 L 77.054688 113.796875 C 76.332031 118.929688 75.949219 124.167969 75.949219 129.5 C 75.949219 134.828125 76.332031 140.070312 77.054688 145.199219 L 103.617188 151.996094 C 105.597656 159.398438 108.535156 166.40625 112.285156 172.886719 L 98.300781 196.488281 C 104.621094 204.890625 112.101562 212.371094 120.507812 218.691406 L 144.105469 204.710938 C 150.589844 208.460938 157.59375 211.398438 164.996094 213.378906 L 171.792969 239.941406 C 176.925781 240.660156 182.164062 241.042969 187.496094 241.042969 C 192.824219 241.042969 198.066406 240.660156 203.195312 239.941406 L 209.992188 213.378906 C 217.394531 211.398438 224.402344 208.460938 230.882812 204.710938 L 254.484375 218.691406 C 262.886719 212.371094 270.367188 204.890625 276.6875 196.488281 L 262.707031 172.886719 C 262.960938 172.445312 263.214844 171.996094 263.460938 171.546875 " fill-opacity="1" fill-rule="nonzero"/></g><g clip-path="url(#b16e8eeadd)"><path fill="#ffffff" d="M 187.019531 94.65625 C 183.515625 94.65625 180.675781 91.816406 180.675781 88.3125 C 180.675781 84.804688 183.515625 81.960938 187.019531 81.960938 C 190.527344 81.960938 193.367188 84.804688 193.367188 88.3125 C 193.367188 91.816406 190.527344 94.65625 187.019531 94.65625 Z M 207.679688 139.917969 C 211.183594 139.917969 214.027344 142.761719 214.027344 146.265625 C 214.027344 149.769531 211.183594 152.609375 207.679688 152.609375 C 204.175781 152.609375 201.332031 149.769531 201.332031 146.265625 C 201.332031 142.761719 204.175781 139.917969 207.679688 139.917969 Z M 297.9375 113.796875 L 271.375 107.003906 C 269.394531 99.597656 266.457031 92.59375 262.707031 86.113281 L 276.6875 62.511719 C 270.367188 54.105469 262.886719 46.625 254.484375 40.304688 L 230.886719 54.289062 C 224.402344 50.539062 217.394531 47.601562 209.992188 45.617188 L 203.195312 19.058594 C 198.066406 18.335938 192.824219 17.953125 187.496094 17.953125 C 182.164062 17.953125 176.925781 18.335938 171.792969 19.058594 L 165 45.617188 C 157.59375 47.601562 150.589844 50.539062 144.105469 54.289062 L 120.507812 40.304688 C 112.101562 46.625 104.621094 54.105469 98.300781 62.511719 L 112.285156 86.113281 C 112.027344 86.554688 111.777344 87 111.527344 87.449219 C 111.503906 87.488281 111.488281 87.523438 111.46875 87.558594 C 111.199219 88.046875 110.933594 88.539062 110.675781 89.03125 C 110.601562 89.164062 110.53125 89.300781 110.457031 89.4375 C 110.230469 89.878906 110.003906 90.320312 109.78125 90.765625 C 109.09375 92.140625 108.441406 93.535156 107.824219 94.945312 L 163.226562 150.039062 L 197.269531 150.039062 C 198.8125 154.292969 202.886719 157.335938 207.679688 157.335938 C 213.792969 157.335938 218.75 152.378906 218.75 146.265625 C 218.75 140.148438 213.792969 135.191406 207.679688 135.191406 C 203.03125 135.191406 199.050781 138.058594 197.410156 142.117188 L 166.503906 142.117188 L 127.785156 103.621094 C 137.792969 80.5625 160.757812 64.4375 187.496094 64.4375 C 218.394531 64.4375 244.261719 85.980469 250.898438 114.863281 L 220.402344 84.535156 L 197.429688 84.535156 C 195.886719 80.28125 191.808594 77.238281 187.019531 77.238281 C 180.90625 77.238281 175.949219 82.195312 175.949219 88.3125 C 175.949219 94.425781 180.90625 99.378906 187.019531 99.378906 C 191.667969 99.378906 195.648438 96.515625 197.289062 92.457031 L 217.121094 92.457031 L 275.851562 150.851562 L 280.574219 149.644531 L 297.9375 145.199219 C 298.65625 140.070312 299.039062 134.828125 299.039062 129.5 C 299.039062 124.167969 298.65625 118.929688 297.9375 113.796875 " fill-opacity="1" fill-rule="nonzero"/></g><g clip-path="url(#36d82c0804)"><path fill="#ffffff" d="M 250.273438 346.59375 L 338.375 346.59375 C 341.121094 346.59375 343.859375 344.359375 344.488281 341.605469 L 362.171875 264.589844 C 362.804688 261.835938 361.089844 259.601562 358.34375 259.601562 L 270.242188 259.601562 C 267.496094 259.601562 264.757812 261.835938 264.128906 264.589844 L 246.445312 341.605469 C 245.8125 344.359375 247.527344 346.59375 250.273438 346.59375 Z M 325.808594 325.835938 C 328.277344 325.835938 330.28125 327.828125 330.292969 330.28125 C 330.28125 332.742188 328.277344 334.730469 325.808594 334.730469 C 325.800781 334.730469 325.789062 334.730469 325.78125 334.730469 L 304.355469 334.730469 C 301.863281 334.730469 299.84375 332.738281 299.84375 330.28125 C 299.859375 327.824219 301.859375 325.835938 304.328125 325.835938 C 304.335938 325.835938 304.347656 325.835938 304.355469 325.835938 L 325.78125 325.835938 C 325.789062 325.835938 325.800781 325.835938 325.808594 325.835938 Z M 269.5625 327.316406 L 305.421875 301.421875 L 305.421875 300.890625 L 282.890625 276.992188 C 281.054688 275.042969 281.242188 271.894531 283.316406 269.949219 C 285.386719 268.007812 288.5625 268.015625 290.398438 269.96875 L 317.433594 298.648438 C 318.964844 300.277344 319.082031 302.734375 317.871094 304.636719 C 317.503906 305.378906 316.738281 306.191406 315.386719 307.144531 L 275.617188 335.617188 C 273.445312 337.195312 270.328125 336.609375 268.65625 334.316406 C 266.984375 332.023438 267.386719 328.890625 269.5625 327.316406 Z M 269.5625 327.316406 " fill-opacity="1" fill-rule="nonzero"/></g><g fill="#ffffff" fill-opacity="1"><g transform="translate(25.452233, 345.946676)"><g><path d="M 15.125 -85.203125 C 19.238281 -85.203125 23.601562 -84.914062 28.21875 -84.34375 C 32.832031 -83.78125 37.304688 -82.679688 41.640625 -81.046875 C 45.972656 -79.410156 49.894531 -77.03125 53.40625 -73.90625 C 56.925781 -70.78125 59.734375 -66.679688 61.828125 -61.609375 C 63.921875 -56.535156 64.96875 -50.195312 64.96875 -42.59375 C 64.96875 -35.28125 63.9375 -29.117188 61.875 -24.109375 C 59.8125 -19.109375 57.039062 -15.03125 53.5625 -11.875 C 50.082031 -8.71875 46.160156 -6.269531 41.796875 -4.53125 C 37.429688 -2.789062 32.957031 -1.597656 28.375 -0.953125 C 23.800781 -0.316406 19.382812 0 15.125 0 L 1.171875 0 C 0.390625 0 0 -0.316406 0 -0.953125 L 0 -34.40625 L 16.296875 -34.40625 L 16.296875 -15.65625 C 18.359375 -15.582031 20.769531 -15.632812 23.53125 -15.8125 C 26.300781 -15.988281 29.140625 -16.519531 32.046875 -17.40625 C 34.960938 -18.300781 37.679688 -19.707031 40.203125 -21.625 C 42.722656 -23.539062 44.742188 -26.203125 46.265625 -29.609375 C 47.796875 -33.015625 48.5625 -37.34375 48.5625 -42.59375 C 48.5625 -49.34375 47.160156 -54.757812 44.359375 -58.84375 C 41.554688 -62.925781 37.722656 -65.835938 32.859375 -67.578125 C 27.992188 -69.316406 22.472656 -70.007812 16.296875 -69.65625 L 16.296875 -50.796875 L 0 -50.796875 L 0 -84.234375 C 0 -84.878906 0.390625 -85.203125 1.171875 -85.203125 Z M 15.125 -85.203125 "/></g></g></g><g fill="#ffffff" fill-opacity="1"><g transform="translate(87.115342, 345.946676)"><g><path d="M 66.875 -1.28125 C 67.019531 -1 66.984375 -0.710938 66.765625 -0.421875 C 66.554688 -0.140625 66.273438 0 65.921875 0 L 51.21875 0 C 50.726562 0 50.410156 -0.210938 50.265625 -0.640625 L 33.4375 -48.140625 L 16.828125 -0.640625 C 16.753906 -0.210938 16.398438 0 15.765625 0 L 1.171875 0 C 0.671875 0 0.332031 -0.140625 0.15625 -0.421875 C -0.0195312 -0.710938 -0.0351562 -1 0.109375 -1.28125 L 32.375 -84.5625 C 32.519531 -84.988281 32.875 -85.203125 33.4375 -85.203125 C 34.007812 -85.203125 34.363281 -84.988281 34.5 -84.5625 Z M 66.875 -1.28125 "/></g></g></g><g fill="#ffffff" fill-opacity="1"><g transform="translate(150.80195, 345.946676)"><g><path d="M 17.578125 -54.3125 L 33.765625 -54.3125 L 33.765625 -0.953125 C 33.765625 -0.316406 33.335938 0 32.484375 0 L 18.75 0 C 17.96875 0 17.578125 -0.316406 17.578125 -0.953125 Z M 1.171875 -70.609375 C 0.390625 -70.609375 0 -70.925781 0 -71.5625 L 0 -84.234375 C 0 -84.878906 0.390625 -85.203125 1.171875 -85.203125 L 50.0625 -85.203125 C 50.832031 -85.203125 51.21875 -84.878906 51.21875 -84.234375 L 51.21875 -71.5625 C 51.21875 -70.925781 50.832031 -70.609375 50.0625 -70.609375 Z M 1.171875 -70.609375 "/></g></g></g><g fill="#ffffff" fill-opacity="1"><g transform="translate(197.981062, 345.946676)"><g><path d="M 34.71875 -14.59375 C 35.5 -14.59375 35.890625 -14.269531 35.890625 -13.625 L 35.890625 -0.953125 C 35.890625 -0.316406 35.5 0 34.71875 0 L 1.171875 0 C 0.390625 0 0 -0.316406 0 -0.953125 L 0 -13.625 C 0 -14.269531 0.390625 -14.59375 1.171875 -14.59375 L 9.90625 -14.59375 L 9.90625 -85.203125 L 26.203125 -85.203125 L 26.203125 -14.59375 Z M 34.71875 -14.59375 "/></g></g></g></svg>